<?xml version="1.0" encoding="utf-8"?>
<!-- Generator: Adobe Illustrator 19.1.0, SVG Export Plug-In . SVG Version: 6.00 Build 0)  -->
<svg version="1.1" id="Layer_1" xmlns="http://www.w3.org/2000/svg" xmlns:xlink="http://www.w3.org/1999/xlink" x="0px" y="0px"
	 viewBox="0 0 510 130.7" style="enable-background:new 0 0 510 130.7;" xml:space="preserve">
<style type="text/css">
	.st0{fill:#FFFFFF;}
</style>
<path class="st0" d="M491.5,93.7v31.2H506v-2h-12.6v-13.7H506v-1.9h-12.6V95.5H506v-1.9H491.5z M470.3,93.7l-4,16l-2.7,12h0l-2.8-12
	l-3.9-16h-2.2l7.8,31.2h2.2l7.8-31.2H470.3z M432.2,124.9h2.1V93.7h-2.1V124.9z M398.5,93.7v1.9h6.3v29.3h2V95.6h6.3v-1.9H398.5z
	 M374.4,93.7l-7.8,31.2h2l1.9-7.7h9.7l2,7.7h2.1l-7.8-31.2H374.4z M375.5,96.6L375.5,96.6l4.4,18.7H371L375.5,96.6z M344.1,124.9
	h2.1V93.7h-2.1V124.9z M310.5,93.7v1.9h6.3v29.3h2V95.6h6.3v-1.9H310.5z M289.5,124.9h2.1V93.7h-2.1V124.9z M267.4,93.7v15.6
	l0.4,11.1h-0.1l-10.8-26.7h-2.1v31.1h2.1v-16.7l-0.3-9.8h0.1l10.5,26.5h2.3V93.7H267.4z M234,124.9h2.1V93.7H234V124.9z"/>
<g>
	<path class="st0" d="M234,63.4h4V30.5c0-6.5,2.5-10.6,11.1-10.6c8.7,0,10.7,4.6,10.7,13.3v30.1h4V32.1c0-6.7,2.5-12.1,11.2-12.1
		c8.7,0,10.7,3.4,10.7,13.3v30.1h4V33.3c0-11-2.9-17-14.2-17c-5.1,0-9.5,1-13.4,6.8c-1.7-4-5.6-6.8-12.5-6.8c-5.1,0-9,1.3-11.4,4.6
		l-0.4-3.7H234V63.4z M314.2,60.3c-9.1,0-10.7-4.1-10.7-14.1V33.9c0-9.8,2.1-13.7,10.7-13.7c9.1,0,10.7,3.8,10.7,13.8v12.3
		C324.9,56.1,322.7,60.3,314.2,60.3 M314.2,63.9c10,0,14.7-4.5,14.7-17.4V34c0-13.7-4.7-17.6-14.7-17.6s-14.7,4.2-14.7,17.3v12.7
		C299.4,60,304.1,63.9,314.2,63.9 M339.1,17.2v46.2h4V30.9c0-5.3,2.8-11.1,11.1-11.1c8.3,0,10.7,3.1,10.7,13.4v30.1h4V33.2
		c0-12-3.3-16.9-14.2-16.9c-5.7,0-9.5,2.4-11.7,5.8l-0.3-4.9H339.1z M407.8,63.4V32.1c0-10.8-4.5-15.3-13.9-15.3
		c-10,0-13.9,4.7-13.9,14.5h3.8c0-8.8,3.5-10.9,10.1-10.9c7.3,0,10.2,3.5,10.1,11.8v6.7c-16.3-1.3-26.2,1.1-26.2,12.6
		c0,8.8,5.3,12.3,13,12.3c6.2,0,10.5-1.4,13.7-6.6l0.1,6.2H407.8z M404,48.6c0,4.8-3,11.4-11.8,11.4c-7,0-10.4-2.5-10.4-8.5
		c0-8.1,7.1-10.4,22.3-8.9V48.6z M417.6,16.5v46.9h4l0.1-33.1c0-6.6,5.1-11.1,12.2-10v-3.7c-5.7-1-10.5,1.7-12.4,5.5l-0.2-5.6H417.6
		z M465.5,49.5c-0.2,6.6-1.9,10.5-10.7,10.5c-8.8,0-10.7-4.4-10.7-13.9V34c0-9.8,2.6-13.7,11.1-13.7c8,0,9.9,3.9,10.3,9.6h3.7
		c-0.4-8.8-3.8-13.4-14-13.4c-10,0-15,4.5-15,17.4v12.3c0,12.7,4.7,17.6,14.7,17.6c9.7,0,14.5-4.6,14.5-14.4H465.5z M506,63.4V34
		c0-13-4.1-17.6-14.4-17.6c-3.6,0-8.4,1.3-10.4,4.8V2h-4v61.4h3.9V32c0-8.4,3.3-11.7,10.5-11.7c8.6,0,10.4,3.8,10.4,13.6v29.5H506z"
		/>
</g>
<path class="st0" d="M58,51.5c4.6,0,8.9,1.7,12.2,4.7l39.4,39.6l8.8-8.6L79,47.3L78.7,47c-5.6-5.1-12.9-7.9-20.6-8L58,39
	C40.9,39,27,52.9,27,69.9l0,3.3h0.2C28.9,88.7,42,100.8,58,100.8c7.3,0,14.3-2.6,19.9-7.3l3.3-3.2l0,0c1.2-1.2,1.8-2.8,1.8-4.4
	c0-3.4-2.8-6.2-6.2-6.2c-1.4,0-2.8,0.5-3.9,1.4l-3.1,3.1c-3.3,2.7-7.5,4.2-11.8,4.2c-9.6,0-17.4-7.3-18.4-16.6v-1.8
	C39.6,59.8,47.9,51.5,58,51.5z"/>
<path class="st0" d="M160.7,39c-7.7,0-15,2.8-20.7,8l-6.5,6.5l8.9,8.8l6-6c3.4-3.1,7.8-4.8,12.3-4.8c10.1,0,18.4,8.2,18.4,18.4
	c0,10.1-8.2,18.4-18.4,18.4c-4.3,0-8.4-1.5-11.7-4.2l-2.4-2.4l-0.8-0.7c-1.1-0.9-2.5-1.4-3.9-1.4c-3.4,0-6.3,2.8-6.3,6.3
	c0,1.7,0.7,3.3,1.9,4.4l0,0l2.9,2.9l0.4,0.4c5.6,4.7,12.6,7.2,19.8,7.2c17,0,30.8-13.8,30.8-30.8C191.6,52.9,177.7,39,160.7,39z"/>
<g>
	<path class="st0" d="M92.9,96c-1.6,0-3.1,0.6-4.3,1.7l-4.4,4.4c-7.6,6.5-17.3,10.1-27.3,10.1c-2.9,0-5.8-0.3-8.6-0.9
		c-18.7-3.9-32.5-20-33.6-38.9l0-2.5c0-20,14.2-37.3,33.7-41.4l1-0.2c2.4-0.4,4.9-0.6,7.4-0.6c10.8,0,21.1,4.1,28.9,11.5
		c0.7,0.7,25,25.2,37.7,38l1.5,1.5l0,0l0.3,0.2l9-9L116,51.4L96.8,32.2c-0.7-0.8-1.5-1.5-2.3-2.3c-10.3-9.7-23.7-15-37.7-15
		c-3.7,0-7.5,0.4-11.1,1.1C20.3,21.3,1.8,43.9,1.8,69.9l0,2.5h0.1c1.1,24.9,19.2,46.3,43.8,51.4c3.7,0.8,7.4,1.1,11.2,1.1
		c13.2,0,25.9-4.8,35.9-13.4l4.8-4.8c1.1-1.2,1.7-2.7,1.7-4.3C99.3,98.8,96.4,96,92.9,96z"/>
	<path class="st0" d="M173,16c-3.6-0.7-7.3-1.1-11.1-1.1c-14.1,0-27.5,5.3-37.7,15c-0.8,0.7-1.5,1.5-2.2,2.2l-5,5l9.1,9l5-5l0.2-0.2
		c0.6-0.6,1.1-1.2,1.7-1.7c7.9-7.4,18.2-11.5,29-11.5c2.9,0,5.7,0.3,8.5,0.9c19.5,4,33.7,21.4,33.7,41.4c0,19.9-14.1,37.3-33.6,41.3
		c-2.8,0.6-5.7,0.9-8.6,0.9c-10,0-19.7-3.6-27.3-10.1l-4.5-4.5c-1.2-1-2.7-1.6-4.2-1.6c-3.5,0-6.4,2.9-6.4,6.4
		c0,1.6,0.6,3.1,1.8,4.4l4.6,4.6l0.1,0.1c10,8.6,22.8,13.4,35.9,13.4c3.8,0,7.5-0.4,11.2-1.1c25.4-5.3,43.8-27.9,43.8-53.8
		C216.9,43.9,198.5,21.3,173,16z"/>
</g>
</svg>
